<svg width="22" height="24" viewBox="0 0 22 24" fill="none" xmlns="http://www.w3.org/2000/svg">
<g id="Group">
<g id="Group_2" opacity="0.2">
<path id="Vector" fill-rule="evenodd" clip-rule="evenodd" d="M7.11719 6.86656C7.11719 4.10196 9.49164 1.7627 12.5489 1.7627C15.6062 1.7627 17.9807 4.10196 17.9807 6.86656C17.9807 9.63115 15.6062 11.9704 12.5489 11.9704C9.49164 11.9704 7.11719 9.63115 7.11719 6.86656Z" fill="#316409"/>
<path id="Vector_2" fill-rule="evenodd" clip-rule="evenodd" d="M12.5755 10.3623C7.57051 10.3623 3.24219 13.8655 3.24219 18.537L3.24529 21.6106C3.2457 21.9859 3.40896 22.3457 3.69929 22.6112C3.98962 22.8767 4.38332 23.0262 4.79411 23.027H20.3134C20.725 23.027 21.1197 22.8776 21.4108 22.6117C21.7018 22.3458 21.8653 21.9852 21.8653 21.6092V18.537C21.8653 13.8755 17.5897 10.3623 12.5755 10.3623Z" fill="#316409"/>
</g>
<path id="Vector_3" d="M9.83547 9.5582C12.4068 9.5582 14.4912 7.65397 14.4912 5.30498C14.4912 2.95599 12.4068 1.05176 9.83547 1.05176C7.26415 1.05176 5.17969 2.95599 5.17969 5.30498C5.17969 7.65397 7.26415 9.5582 9.83547 9.5582Z" stroke="black" stroke-width="0.813885" stroke-linecap="round"/>
<path id="Vector_4" d="M18.3759 20.9015V18.066C18.3759 13.6738 14.5038 9.55957 9.84028 9.55957C5.17519 9.55957 1.30469 13.6738 1.30469 18.066V20.9015" stroke="black" stroke-width="0.813885" stroke-linecap="round"/>
</g>
</svg>
