<svg width="21" height="22" viewBox="0 0 21 22" fill="none" xmlns="http://www.w3.org/2000/svg">
<g id="Group">
<g id="Vector">
<mask id="path-1-inside-1_2694_583" fill="white">
<path d="M9.50889 17.0213C9.50984 17.0213 9.51061 17.0221 9.51061 17.0231V17.8663C9.51061 18.0904 9.42034 18.3053 9.25966 18.4638C9.09898 18.6223 8.88105 18.7113 8.65382 18.7113H7.78522C7.31855 18.7113 6.94024 19.0896 6.94024 19.5563C6.94024 20.0045 6.75971 20.4343 6.43835 20.7512C6.11699 21.0682 5.68114 21.2462 5.22667 21.2462H1.79951C1.34505 21.2462 0.90919 21.0682 0.587832 20.7512C0.266474 20.4343 0.0859375 20.0045 0.0859375 19.5563V17.3712C0.0860346 16.923 0.266635 16.4932 0.588015 16.1764L4.21084 12.6035C6.06226 10.7776 6.45512 7.93117 7.32921 5.48217C7.80712 4.14318 8.70031 2.98654 9.88215 2.17626C11.064 1.36598 12.4745 0.943179 13.9136 0.967816C15.3528 0.992452 16.7475 1.46327 17.9002 2.31352C19.0528 3.16376 19.9047 4.35027 20.3352 5.70482C20.7657 7.05936 20.7529 8.51319 20.2986 9.86015C19.8443 11.2071 18.9716 12.3789 17.8042 13.2092C16.6368 14.0396 15.2339 14.4864 13.7945 14.4864H13.7692C12.8359 14.4864 12.0793 15.243 12.0793 16.1764C12.0793 16.4005 11.989 16.6154 11.8283 16.7739C11.6676 16.9323 11.4497 17.0213 11.2225 17.0213H9.50889ZM-nan -nanL15.5081 7.7266C15.9626 7.7266 16.3984 7.54856 16.7198 7.23163C17.0412 6.9147 17.2217 6.48486 17.2217 6.03665C17.2217 5.58845 17.0412 5.1586 16.7198 4.84168C16.3984 4.52475 15.9626 4.3467 15.5081 4.3467C15.0537 4.3467 14.6178 4.52475 14.2964 4.84168C13.9751 5.1586 13.7945 5.58845 13.7945 6.03665C13.7945 6.48486 13.9751 6.9147 14.2964 7.23163C14.6178 7.54856 15.0537 7.7266 15.5081 7.7266L-nan -nanZ"/>
</mask>
<path d="M9.50889 17.0213C9.50984 17.0213 9.51061 17.0221 9.51061 17.0231V17.8663C9.51061 18.0904 9.42034 18.3053 9.25966 18.4638C9.09898 18.6223 8.88105 18.7113 8.65382 18.7113H7.78522C7.31855 18.7113 6.94024 19.0896 6.94024 19.5563C6.94024 20.0045 6.75971 20.4343 6.43835 20.7512C6.11699 21.0682 5.68114 21.2462 5.22667 21.2462H1.79951C1.34505 21.2462 0.90919 21.0682 0.587832 20.7512C0.266474 20.4343 0.0859375 20.0045 0.0859375 19.5563V17.3712C0.0860346 16.923 0.266635 16.4932 0.588015 16.1764L4.21084 12.6035C6.06226 10.7776 6.45512 7.93117 7.32921 5.48217C7.80712 4.14318 8.70031 2.98654 9.88215 2.17626C11.064 1.36598 12.4745 0.943179 13.9136 0.967816C15.3528 0.992452 16.7475 1.46327 17.9002 2.31352C19.0528 3.16376 19.9047 4.35027 20.3352 5.70482C20.7657 7.05936 20.7529 8.51319 20.2986 9.86015C19.8443 11.2071 18.9716 12.3789 17.8042 13.2092C16.6368 14.0396 15.2339 14.4864 13.7945 14.4864H13.7692C12.8359 14.4864 12.0793 15.243 12.0793 16.1764C12.0793 16.4005 11.989 16.6154 11.8283 16.7739C11.6676 16.9323 11.4497 17.0213 11.2225 17.0213H9.50889ZM-nan -nanL15.5081 7.7266C15.9626 7.7266 16.3984 7.54856 16.7198 7.23163C17.0412 6.9147 17.2217 6.48486 17.2217 6.03665C17.2217 5.58845 17.0412 5.1586 16.7198 4.84168C16.3984 4.52475 15.9626 4.3467 15.5081 4.3467C15.0537 4.3467 14.6178 4.52475 14.2964 4.84168C13.9751 5.1586 13.7945 5.58845 13.7945 6.03665C13.7945 6.48486 13.9751 6.9147 14.2964 7.23163C14.6178 7.54856 15.0537 7.7266 15.5081 7.7266L-nan -nanZ" fill="#C7D1BF"/>
<path d="M0.0859375 19.5563H-0.727947H0.0859375ZM0.0859375 17.3712L-0.727947 17.371V17.3712H0.0859375ZM0.588015 16.1764L1.15942 16.7559L1.15951 16.7558L0.588015 16.1764ZM13.7945 14.4864L13.7946 13.6725H13.7945V14.4864ZM15.5081 4.3467V3.53282V4.3467ZM8.69672 17.0231V17.8663H10.3245V17.0231H8.69672ZM8.69672 17.8663C8.69672 17.8709 8.69499 17.8776 8.68817 17.8843L9.83115 19.0433C10.1457 18.7331 10.3245 18.3099 10.3245 17.8663H8.69672ZM8.68817 17.8843C8.68096 17.8914 8.66882 17.8974 8.65382 17.8974V19.5252C9.09329 19.5252 9.517 19.3531 9.83115 19.0433L8.68817 17.8843ZM8.65382 17.8974H7.78522V19.5252H8.65382V17.8974ZM6.12636 19.5563C6.12636 19.7849 6.03435 20.0066 5.86685 20.1718L7.00984 21.3307C7.48506 20.8621 7.75413 20.224 7.75413 19.5563H6.12636ZM5.86685 20.1718C5.69897 20.3373 5.4689 20.4323 5.22667 20.4323V22.0601C5.89337 22.0601 6.53501 21.799 7.00984 21.3307L5.86685 20.1718ZM5.22667 20.4323H1.79951V22.0601H5.22667V20.4323ZM1.79951 20.4323C1.55728 20.4323 1.32721 20.3373 1.15933 20.1718L0.0163373 21.3307C0.491169 21.799 1.13281 22.0601 1.79951 22.0601V20.4323ZM1.15933 20.1718C0.991826 20.0066 0.899822 19.7849 0.899822 19.5563H-0.727947C-0.727947 20.224 -0.458877 20.8621 0.0163373 21.3307L1.15933 20.1718ZM0.899822 19.5563V17.3712H-0.727947V19.5563H0.899822ZM0.899822 17.3713C0.899872 17.1427 0.991909 16.9211 1.15942 16.7559L0.0166079 15.5968C-0.458638 16.0653 -0.727803 16.7033 -0.727947 17.371L0.899822 17.3713ZM1.15951 16.7558L4.78234 13.183L3.63935 12.024L0.0165204 15.5969L1.15951 16.7558ZM8.09573 5.75575C8.5155 4.57965 9.30079 3.56165 10.3424 2.84752L9.42192 1.50499C8.09984 2.41143 7.09873 3.7067 6.56268 5.20858L8.09573 5.75575ZM10.3424 2.84752C11.3841 2.13329 12.6287 1.75982 13.8997 1.78158L13.9276 0.15405C12.3202 0.126534 10.7438 0.598662 9.42192 1.50499L10.3424 2.84752ZM13.8997 1.78158C15.1706 1.80334 16.4012 2.21917 17.417 2.96848L18.3833 1.65855C17.0939 0.707375 15.5349 0.181566 13.9276 0.15405L13.8997 1.78158ZM17.417 2.96848C18.4326 3.71767 19.1815 4.76173 19.5596 5.95133L21.1109 5.4583C20.6279 3.93881 19.6729 2.60984 18.3833 1.65855L17.417 2.96848ZM19.5596 5.95133C19.9376 7.1408 19.9264 8.41715 19.5274 9.60004L21.0698 10.1203C21.5795 8.60922 21.5938 6.97791 21.1109 5.4583L19.5596 5.95133ZM19.5274 9.60004C19.1284 10.7831 18.3612 11.8142 17.3324 12.546L18.2759 13.8724C19.582 12.9435 20.5602 11.6312 21.0698 10.1203L19.5274 9.60004ZM17.3324 12.546C16.3035 13.2779 15.0657 13.6725 13.7946 13.6725L13.7945 15.3003C15.4021 15.3003 16.97 14.8013 18.2759 13.8724L17.3324 12.546ZM13.7945 13.6725H13.7692V15.3003H13.7945V13.6725ZM11.2654 16.1764C11.2654 16.1809 11.2636 16.1876 11.2568 16.1944L12.3998 17.3533C12.7143 17.0431 12.8931 16.62 12.8931 16.1764H11.2654ZM11.2568 16.1944C11.2496 16.2015 11.2375 16.2075 11.2225 16.2075V17.8352C11.6619 17.8352 12.0857 17.6632 12.3998 17.3533L11.2568 16.1944ZM11.2225 16.2075H9.50889V17.8352H11.2225V16.2075ZM15.5081 8.54049C16.1748 8.54049 16.8165 8.2794 17.2913 7.81111L16.1483 6.65214C15.9804 6.81771 15.7504 6.91272 15.5081 6.91272V8.54049ZM17.2913 7.81111C17.7665 7.34245 18.0356 6.70439 18.0356 6.03665H16.4078C16.4078 6.26532 16.3158 6.48695 16.1483 6.65214L17.2913 7.81111ZM18.0356 6.03665C18.0356 5.36892 17.7665 4.73085 17.2913 4.26219L16.1483 5.42116C16.3158 5.58635 16.4078 5.80798 16.4078 6.03665H18.0356ZM17.2913 4.26219C16.8165 3.79391 16.1748 3.53282 15.5081 3.53282V5.16059C15.7504 5.16059 15.9804 5.25559 16.1483 5.42116L17.2913 4.26219ZM15.5081 3.53282C14.8414 3.53282 14.1998 3.79391 13.7249 4.26219L14.8679 5.42116C15.0358 5.25559 15.2659 5.16059 15.5081 5.16059V3.53282ZM13.7249 4.26219C13.2497 4.73085 12.9807 5.36892 12.9807 6.03665H14.6084C14.6084 5.80798 14.7004 5.58635 14.8679 5.42116L13.7249 4.26219ZM12.9807 6.03665C12.9807 6.70439 13.2497 7.34245 13.7249 7.81111L14.8679 6.65214C14.7004 6.48695 14.6084 6.26532 14.6084 6.03665H12.9807ZM13.7249 7.81111C14.1998 8.2794 14.8414 8.54049 15.5081 8.54049V6.91272C15.2659 6.91272 15.0358 6.81771 14.8679 6.65214L13.7249 7.81111ZM10.3245 17.0231C10.3245 16.5726 9.95934 16.2075 9.50889 16.2075V17.8352C9.06034 17.8352 8.69672 17.4716 8.69672 17.0231H10.3245ZM13.7692 13.6725C12.3864 13.6725 11.2654 14.7935 11.2654 16.1764H12.8931C12.8931 15.6925 13.2854 15.3003 13.7692 15.3003V13.6725ZM4.78234 13.183C5.83754 12.1423 6.44937 10.838 6.90417 9.5469C7.13191 8.90041 7.32677 8.23707 7.51421 7.6015C7.70389 6.95833 7.88612 6.34302 8.09573 5.75575L6.56268 5.20858C6.33524 5.84581 6.14059 6.50468 5.95292 7.14106C5.763 7.78504 5.58004 8.40661 5.36887 9.00608C4.94587 10.2069 4.43557 11.2388 3.63935 12.024L4.78234 13.183ZM7.78522 17.8974C6.86905 17.8974 6.12636 18.6401 6.12636 19.5563H7.75413C7.75413 19.5391 7.76805 19.5252 7.78522 19.5252V17.8974Z" fill="black" mask="url(#path-1-inside-1_2694_583)"/>
</g>
</g>
</svg>
